<svg width="42" height="46" viewBox="0 0 42 46" fill="none" xmlns="http://www.w3.org/2000/svg">
<path d="M24.4286 45L1 31.455V4.29292M24.4286 45L17.7337 33.3676L7.72143 27.5484V15.9099L1 4.29292M24.4286 45L31 41.1808L24.4286 29.4765L14.0652 23.8613V12.2227L6.66532 1L1 4.29292" stroke="#ffffff"  stroke-width="2" stroke-linecap="round" stroke-linejoin="round"/>
<path d="M41.0001 24.3671V35.137L34.1408 39M41.0001 24.3671L34.1408 27.3907V39M41.0001 24.3671L34.1407 27.3768L34.1408 39M41.0001 24.3671L34.3334 21.6667L27.6667 24.4478V35.3729L34.1408 39" stroke="#ffffff"  stroke-width="2" stroke-linecap="round" stroke-linejoin="round"/>
<path d="M41.0001 13C41.0001 16.682 38.0154 19.6667 34.3334 19.6667C30.6515 19.6667 27.6667 16.682 27.6667 13C27.6667 9.31793 30.6515 6.33335 34.3334 6.33335C38.0154 6.33335 41.0001 9.31793 41.0001 13Z" fill="#ffffff" />
</svg>
