<svg width="18" height="18" viewBox="0 0 18 18" fill="none" xmlns="http://www.w3.org/2000/svg">
<path d="M16.4208 10.0006C16.3487 9.92826 16.2582 9.87696 16.1591 9.85219C16.06 9.82741 15.956 9.83009 15.8583 9.85994C14.7858 10.1842 13.6453 10.2114 12.5585 9.9386C11.4717 9.66582 10.4793 9.10331 9.68696 8.31099C8.89464 7.51867 8.33212 6.52623 8.05935 5.43943C7.78657 4.35263 7.81376 3.21219 8.13801 2.13962C8.16811 2.04189 8.17099 1.9378 8.14635 1.83855C8.12171 1.73931 8.07048 1.64865 7.99817 1.57634C7.92586 1.50403 7.83521 1.4528 7.73596 1.42816C7.63671 1.40352 7.53262 1.40641 7.43489 1.4365C5.95202 1.89075 4.65019 2.80112 3.71465 4.03806C2.89651 5.12429 2.39746 6.41714 2.27357 7.77135C2.14969 9.12557 2.40588 10.4875 3.01336 11.7042C3.62084 12.9208 4.55555 13.9439 5.71247 14.6586C6.86938 15.3734 8.20267 15.7513 9.56254 15.75C11.149 15.7549 12.6933 15.2392 13.9585 14.2819C15.1954 13.3464 16.1058 12.0445 16.56 10.5617C16.5898 10.4643 16.5926 10.3607 16.568 10.2619C16.5435 10.163 16.4926 10.0727 16.4208 10.0006ZM13.2821 13.3833C12.0907 14.2807 10.6152 14.7175 9.12727 14.6133C7.63936 14.5091 6.23916 13.8709 5.18442 12.8163C4.12969 11.7616 3.49142 10.3615 3.38712 8.87359C3.28281 7.38568 3.71949 5.91017 4.61676 4.71869C5.20134 3.9467 5.95711 3.32091 6.82458 2.89056C6.77516 3.23736 6.75025 3.58721 6.75004 3.93751C6.75209 5.87628 7.52317 7.73505 8.89409 9.10597C10.265 10.4769 12.1238 11.248 14.0625 11.25C14.4136 11.2499 14.7641 11.225 15.1116 11.1755C14.6809 12.0431 14.0546 12.7989 13.2821 13.3833Z" fill="white"/>
</svg>
