<svg width="18" height="18" viewBox="0 0 18 18" fill="none" xmlns="http://www.w3.org/2000/svg">
<path d="M8.4375 2.8125V2.25C8.4375 2.10082 8.49676 1.95774 8.60225 1.85225C8.70774 1.74676 8.85082 1.6875 9 1.6875C9.14918 1.6875 9.29226 1.74676 9.39775 1.85225C9.50324 1.95774 9.5625 2.10082 9.5625 2.25V2.8125C9.5625 2.96168 9.50324 3.10476 9.39775 3.21025C9.29226 3.31574 9.14918 3.375 9 3.375C8.85082 3.375 8.70774 3.31574 8.60225 3.21025C8.49676 3.10476 8.4375 2.96168 8.4375 2.8125ZM13.5 9C13.5 9.89002 13.2361 10.76 12.7416 11.5001C12.2471 12.2401 11.5443 12.8169 10.7221 13.1575C9.89981 13.4981 8.99501 13.5872 8.12209 13.4135C7.24918 13.2399 6.44736 12.8113 5.81802 12.182C5.18868 11.5526 4.7601 10.7508 4.58647 9.87791C4.41283 9.00499 4.50195 8.10019 4.84254 7.27792C5.18314 6.45566 5.75991 5.75285 6.49993 5.25839C7.23995 4.76392 8.10998 4.5 9 4.5C10.1931 4.5013 11.3369 4.97583 12.1805 5.81946C13.0242 6.66309 13.4987 7.80693 13.5 9ZM12.375 9C12.375 8.33249 12.1771 7.67997 11.8062 7.12495C11.4354 6.56993 10.9083 6.13735 10.2916 5.88191C9.67486 5.62646 8.99626 5.55962 8.34157 5.68985C7.68688 5.82008 7.08552 6.14151 6.61351 6.61351C6.14151 7.08552 5.82008 7.68688 5.68985 8.34157C5.55962 8.99626 5.62646 9.67486 5.88191 10.2916C6.13735 10.9083 6.56993 11.4354 7.12495 11.8062C7.67997 12.1771 8.33249 12.375 9 12.375C9.89482 12.3741 10.7527 12.0182 11.3855 11.3855C12.0182 10.7527 12.3741 9.89482 12.375 9ZM4.10203 4.89797C4.20758 5.00352 4.35073 5.06281 4.5 5.06281C4.64927 5.06281 4.79242 5.00352 4.89797 4.89797C5.00352 4.79242 5.06281 4.64927 5.06281 4.5C5.06281 4.35073 5.00352 4.20758 4.89797 4.10203L4.33547 3.53953C4.22992 3.43398 4.08677 3.37469 3.9375 3.37469C3.78823 3.37469 3.64508 3.43398 3.53953 3.53953C3.43398 3.64508 3.37469 3.78823 3.37469 3.9375C3.37469 4.08677 3.43398 4.22992 3.53953 4.33547L4.10203 4.89797ZM4.10203 13.102L3.53953 13.6645C3.43398 13.7701 3.37469 13.9132 3.37469 14.0625C3.37469 14.2118 3.43398 14.3549 3.53953 14.4605C3.64508 14.566 3.78823 14.6253 3.9375 14.6253C4.08677 14.6253 4.22992 14.566 4.33547 14.4605L4.89797 13.898C4.95023 13.8457 4.99169 13.7837 5.01997 13.7154C5.04826 13.6471 5.06281 13.5739 5.06281 13.5C5.06281 13.4261 5.04826 13.3529 5.01997 13.2846C4.99169 13.2163 4.95023 13.1543 4.89797 13.102C4.84571 13.0498 4.78366 13.0083 4.71538 12.98C4.6471 12.9517 4.57391 12.9372 4.5 12.9372C4.42609 12.9372 4.3529 12.9517 4.28462 12.98C4.21634 13.0083 4.15429 13.0498 4.10203 13.102ZM13.5 5.0625C13.5739 5.06256 13.6471 5.04806 13.7154 5.01983C13.7836 4.9916 13.8457 4.95019 13.898 4.89797L14.4605 4.33547C14.566 4.22992 14.6253 4.08677 14.6253 3.9375C14.6253 3.78823 14.566 3.64508 14.4605 3.53953C14.3549 3.43398 14.2118 3.37469 14.0625 3.37469C13.9132 3.37469 13.7701 3.43398 13.6645 3.53953L13.102 4.10203C13.0233 4.1807 12.9696 4.28097 12.9479 4.39014C12.9261 4.49931 12.9373 4.61248 12.9799 4.71532C13.0225 4.81816 13.0947 4.90604 13.1873 4.96784C13.2798 5.02964 13.3887 5.06259 13.5 5.0625ZM13.898 13.102C13.7924 12.9965 13.6493 12.9372 13.5 12.9372C13.3507 12.9372 13.2076 12.9965 13.102 13.102C12.9965 13.2076 12.9372 13.3507 12.9372 13.5C12.9372 13.6493 12.9965 13.7924 13.102 13.898L13.6645 14.4605C13.7168 14.5127 13.7788 14.5542 13.8471 14.5825C13.9154 14.6108 13.9886 14.6253 14.0625 14.6253C14.1364 14.6253 14.2096 14.6108 14.2779 14.5825C14.3462 14.5542 14.4082 14.5127 14.4605 14.4605C14.5127 14.4082 14.5542 14.3462 14.5825 14.2779C14.6108 14.2096 14.6253 14.1364 14.6253 14.0625C14.6253 13.9886 14.6108 13.9154 14.5825 13.8471C14.5542 13.7788 14.5127 13.7168 14.4605 13.6645L13.898 13.102ZM2.8125 8.4375H2.25C2.10082 8.4375 1.95774 8.49676 1.85225 8.60225C1.74676 8.70774 1.6875 8.85082 1.6875 9C1.6875 9.14918 1.74676 9.29226 1.85225 9.39775C1.95774 9.50324 2.10082 9.5625 2.25 9.5625H2.8125C2.96168 9.5625 3.10476 9.50324 3.21025 9.39775C3.31574 9.29226 3.375 9.14918 3.375 9C3.375 8.85082 3.31574 8.70774 3.21025 8.60225C3.10476 8.49676 2.96168 8.4375 2.8125 8.4375ZM9 14.625C8.85082 14.625 8.70774 14.6843 8.60225 14.7898C8.49676 14.8952 8.4375 15.0383 8.4375 15.1875V15.75C8.4375 15.8992 8.49676 16.0423 8.60225 16.1477C8.70774 16.2532 8.85082 16.3125 9 16.3125C9.14918 16.3125 9.29226 16.2532 9.39775 16.1477C9.50324 16.0423 9.5625 15.8992 9.5625 15.75V15.1875C9.5625 15.0383 9.50324 14.8952 9.39775 14.7898C9.29226 14.6843 9.14918 14.625 9 14.625ZM15.75 8.4375H15.1875C15.0383 8.4375 14.8952 8.49676 14.7898 8.60225C14.6843 8.70774 14.625 8.85082 14.625 9C14.625 9.14918 14.6843 9.29226 14.7898 9.39775C14.8952 9.50324 15.0383 9.5625 15.1875 9.5625H15.75C15.8992 9.5625 16.0423 9.50324 16.1477 9.39775C16.2532 9.29226 16.3125 9.14918 16.3125 9C16.3125 8.85082 16.2532 8.70774 16.1477 8.60225C16.0423 8.49676 15.8992 8.4375 15.75 8.4375Z" fill="white"/>
</svg>
